<?xml version="1.0" standalone="no"?>
<!DOCTYPE svg PUBLIC "-//W3C//DTD SVG 20010904//EN"
 "http://www.w3.org/TR/2001/REC-SVG-20010904/DTD/svg10.dtd">
<svg version="1.0" xmlns="http://www.w3.org/2000/svg"
 width="215.000000pt" height="235.000000pt" viewBox="0 0 215.000000 235.000000"
 preserveAspectRatio="xMidYMid meet">
<metadata>
Created by potrace 1.16, written by Peter Selinger 2001-2019
</metadata>
<g transform="translate(0.000000,235.000000) scale(0.100000,-0.100000)"
fill="#000000" stroke="none">
<path d="M682 2211 c-59 -22 -162 -88 -172 -111 -4 -8 -15 -30 -24 -48 -10
-18 -30 -69 -46 -112 -17 -51 -40 -94 -63 -119 -41 -46 -62 -82 -72 -129 -5
-25 0 -46 26 -100 18 -37 45 -86 61 -109 16 -24 26 -43 22 -43 -3 0 -44 18
-91 40 -96 45 -117 42 -106 -12 5 -25 1 -34 -23 -53 l-28 -23 93 -101 c100
-109 167 -169 218 -194 24 -13 30 -21 26 -37 -7 -26 14 -196 33 -275 l14 -60
-60 -63 c-87 -92 -105 -189 -46 -251 14 -15 26 -30 26 -32 0 -3 -33 -19 -72
-34 -75 -29 -141 -66 -153 -85 -11 -17 37 -60 68 -60 15 0 27 -5 27 -12 0 -8
42 -9 158 -5 304 12 355 35 302 134 l-19 36 31 41 c18 23 33 43 34 45 2 1 33
-2 71 -9 67 -12 68 -12 91 -59 19 -38 21 -52 13 -75 -29 -75 0 -148 71 -177
27 -11 33 -11 42 3 8 13 14 14 34 5 20 -9 26 -8 33 6 12 21 29 22 29 2 0 -25
34 -17 72 18 46 42 51 63 30 112 -18 39 -18 40 5 74 l23 33 127 2 c113 1 134
4 176 25 94 46 206 172 255 284 29 67 52 183 52 265 0 55 4 72 19 86 10 10 24
38 30 63 7 25 20 60 29 77 20 37 33 170 16 155 -8 -6 -14 -4 -18 6 -8 22 -21
145 -18 180 l2 30 -17 -27 c-23 -37 -48 -41 -62 -11 -6 13 -11 35 -11 48 0 13
-8 40 -17 60 -17 35 -17 35 -30 13 -7 -13 -12 -30 -13 -39 0 -34 -70 -74 -70
-41 0 10 -11 -1 -25 -23 -27 -45 -31 -72 -13 -109 10 -24 12 -24 24 -8 12 16
13 15 14 -5 0 -13 8 -24 20 -28 11 -3 20 -14 20 -23 0 -12 7 -7 20 13 11 17
20 40 20 53 0 12 5 22 11 22 8 0 9 -25 5 -82 -9 -120 13 -185 38 -110 12 34
26 34 26 -1 0 -10 9 -30 19 -44 27 -33 19 -119 -14 -149 -20 -18 -23 -33 -27
-136 -5 -109 -8 -121 -43 -193 -91 -183 -242 -280 -427 -273 -45 1 -78 -2 -78
-7 0 -15 128 -18 190 -5 71 16 159 61 213 108 l42 37 -34 -43 c-43 -56 -106
-106 -167 -134 -41 -19 -66 -23 -151 -23 -56 0 -107 5 -112 10 -6 6 -6 30 1
65 7 37 6 71 -1 107 -5 28 -7 67 -4 86 l5 35 46 -20 c38 -17 60 -20 133 -16
153 9 245 72 316 215 35 72 56 173 36 173 -6 0 -13 -22 -15 -48 -9 -90 -84
-220 -157 -267 -86 -57 -242 -73 -321 -32 l-44 22 -17 89 c-10 49 -37 145 -60
213 -23 68 -40 124 -38 126 2 1 26 13 52 26 63 32 218 199 196 212 -44 26 -44
26 -33 68 6 22 9 43 6 46 -12 11 -52 3 -143 -29 -130 -47 -196 -58 -205 -37
-4 9 -10 126 -14 261 -8 290 -16 322 -107 420 -97 105 -219 142 -331 101z
m193 -22 c67 -25 151 -103 183 -169 33 -70 42 -137 43 -329 0 -97 4 -197 8
-223 6 -37 5 -48 -6 -48 -20 0 -16 -18 6 -25 22 -7 156 23 246 55 33 12 72 24
87 27 27 5 27 5 15 -26 -11 -30 -27 -42 -27 -21 0 6 -20 10 -45 10 -25 0 -45
-4 -45 -10 0 -5 16 -10 36 -10 31 0 35 -3 29 -17 -18 -44 -17 -50 11 -57 22
-6 32 -3 44 12 8 10 21 17 28 14 8 -2 -4 -21 -32 -50 -24 -26 -58 -63 -74 -82
l-30 -35 -106 0 c-113 0 -116 -2 -94 -50 9 -20 18 -25 49 -25 41 0 36 7 81
-119 42 -122 68 -237 68 -308 l0 -63 -32 20 c-40 24 -110 26 -133 4 -22 -22
-11 -30 19 -14 32 17 88 6 123 -24 22 -19 27 -33 31 -86 3 -34 -1 -87 -8 -117
-11 -49 -16 -56 -48 -70 -27 -11 -58 -14 -119 -10 -96 6 -104 -3 -48 -52 36
-31 63 -38 93 -22 9 4 29 11 44 15 23 5 30 2 43 -23 17 -33 20 -61 6 -61 -5 0
-11 9 -14 20 -10 38 -76 14 -78 -28 0 -13 -3 -11 -11 6 -14 29 -55 40 -75 19
-14 -13 -18 -13 -45 2 -28 15 -30 15 -50 -9 l-21 -25 7 60 c4 33 7 71 6 85 -4
97 0 124 28 179 51 96 66 163 65 291 0 87 -5 134 -22 195 -27 97 -111 261
-165 322 -22 25 -35 48 -29 51 23 16 94 117 84 120 -6 2 -30 -13 -53 -33 -77
-71 -208 -111 -337 -103 -79 4 -112 24 -180 108 -32 40 -30 39 21 -12 45 -45
70 -61 113 -74 80 -23 182 -3 294 56 58 31 171 129 171 149 0 20 -22 22 -27 2
-6 -25 -8 -25 -158 -52 -72 -13 -166 -22 -235 -23 -109 -1 -118 1 -174 29
-127 64 -146 152 -55 266 22 29 38 39 59 39 15 0 32 6 37 13 19 23 54 146 57
195 3 59 7 66 57 98 104 65 190 78 284 43z m-391 -817 c20 -18 43 -32 52 -32
24 0 26 -22 6 -80 -17 -51 -21 -55 -53 -58 -18 -2 -54 -1 -79 3 -40 6 -54 16
-131 95 l-86 89 24 23 c15 14 23 32 22 48 0 14 -1 28 0 32 2 13 209 -88 245
-120z m289 73 c51 -20 -32 -49 -143 -50 -81 0 -130 19 -130 52 0 14 14 15 128
10 70 -3 135 -9 145 -12z m146 -132 c43 -43 70 -85 108 -163 67 -137 85 -208
86 -345 1 -138 -18 -215 -76 -302 l-42 -65 -55 7 c-75 9 -161 51 -243 119
-110 92 -147 173 -169 364 -14 125 -5 213 34 329 l23 68 35 -3 c38 -3 185 24
210 39 25 14 29 11 89 -48z m-335 -657 c14 -24 44 -59 66 -76 l41 -33 -20 -21
c-16 -17 -21 -36 -21 -74 0 -68 -27 -96 -84 -87 -55 8 -91 30 -115 68 -23 37
-27 90 -11 132 8 21 106 135 116 135 1 0 14 -20 28 -44z m-37 -351 c29 -2 63
-18 63 -29 0 -15 -6 -18 -89 -47 -54 -19 -54 -19 -68 1 -8 11 -23 20 -34 20
-10 0 -19 5 -19 10 0 6 -11 15 -25 20 -14 5 -25 13 -25 18 0 5 28 20 63 34
l62 24 32 -25 c18 -14 36 -26 40 -26z"/>
<path d="M892 1977 c-28 -30 -62 -126 -69 -193 l-5 -51 45 -22 c56 -27 108
-21 137 16 28 36 28 158 0 213 -32 63 -72 76 -108 37z"/>
</g>
</svg>
